<svg xmlns="http://www.w3.org/2000/svg" viewBox="0 0 400 200" width="400" height="200">
  <defs>
    <linearGradient id="grad" x1="0%" y1="0%" x2="100%" y2="100%">
      <stop offset="0%" style="stop-color:#2563eb;stop-opacity:1" />
      <stop offset="100%" style="stop-color:#38bdf8;stop-opacity:1" />
    </linearGradient>
    <pattern id="grid" width="40" height="40" patternUnits="userSpaceOnUse">
      <path d="M 40 0 L 0 0 0 40" fill="none" stroke="rgba(255,255,255,0.08)" stroke-width="1"/>
    </pattern>
  </defs>
  <rect width="400" height="200" fill="url(#grad)"/>
  <rect width="400" height="200" fill="url(#grid)"/>
  <!-- Book icon -->
  <g transform="translate(160, 60)" fill="none" stroke="rgba(255,255,255,0.9)" stroke-width="4" stroke-linecap="round" stroke-linejoin="round">
    <path d="M4 19.5A2.5 2.5 0 0 1 6.5 17H20"/>
    <path d="M6.5 2H20v20H6.5A2.5 2.5 0 0 1 4 19.5v-15A2.5 2.5 0 0 1 6.5 2z"/>
    <line x1="8" y1="7" x2="16" y2="7"/>
    <line x1="8" y1="11" x2="16" y2="11"/>
    <line x1="8" y1="15" x2="12" y2="15"/>
  </g>
  <circle cx="200" cy="92" r="36" fill="rgba(255,255,255,0.1)"/>
  <circle cx="200" cy="92" r="52" fill="rgba(255,255,255,0.05)"/>
</svg>
